<svg id="Layer_20" data-name="Layer 20" xmlns="http://www.w3.org/2000/svg" viewBox="0 0 51.43 45.69"><defs><style>.cls-1{fill:#010101;}</style></defs><path class="cls-1" d="M54.34,44.39c.39,1,.76,2,1.16,3a2.42,2.42,0,0,1,.19,1.3,2.39,2.39,0,0,1-.22.23,2.24,2.24,0,0,1-1.64.62c-.52,0-.7-.51-.93-.89,0,0-.09-.08-.12-.07a17.22,17.22,0,0,0-2.72.78,6.6,6.6,0,0,0-1.72.64,3.88,3.88,0,0,0-1.22.48l-.38.16c-.41.13-.66.32-.51.85s-.18.88-.67,1.09l-.56.24c-1,.06-1.22-.08-1.6-1-.24-.6-.48-1.19-.73-1.78-.71-2-1.49-3.92-2.3-5.86-.31-.92-.66-1.81-1.06-2.7a12.42,12.42,0,0,0-.65-1.66,7.19,7.19,0,0,0-.5-1.26c-.33-1-.7-1.9-1.11-2.83s-.75-2-1.19-3l-.08-.17a26.09,26.09,0,0,0-1-2.54c-.35-.95-.7-1.9-1.13-2.82A14.79,14.79,0,0,0,32.84,25a2.18,2.18,0,0,0-.27-.72l-1.15-2.92L30.1,17.94,30,18V50l0,.58a3.32,3.32,0,0,1-2.21,2.23c-3.13,0-6.26.07-9.38,0-.83,0-1.63,0-2.46,0-3.16.12-6.33,0-9.5,0a3.31,3.31,0,0,1-2.12-2.13l0-.67V10l.11-.84a2.91,2.91,0,0,1,3.05-2c2.7,0,5.4,0,8.09,0a2.53,2.53,0,0,1,1.36.28.44.44,0,0,0,.49,0,2.75,2.75,0,0,1,1.41-.28h8a2.84,2.84,0,0,1,3.14,2.1L30,10c-.19.51.27.76.43,1.13a.32.32,0,0,0,.43.22,9.94,9.94,0,0,0,1.94-.53,10.13,10.13,0,0,0,2.26-.8,1.8,1.8,0,0,0,.67-.24c.42-.19.83-.4,1.26-.57.24-.1.28-.21.23-.47-.15-.76.07-1.1.81-1.37l.33-.14c1-.16,1.31,0,1.69,1,.62,1.53,1.23,3.07,1.85,4.61.34,1,.73,2,1.15,2.93.72,1.93,1.46,3.86,2.28,5.76.3,1,.7,1.87,1.08,2.8a11.08,11.08,0,0,0,.7,1.72,4.31,4.31,0,0,0,.42,1.1c.32,1,.71,1.9,1.11,2.83L51,35.85c.31.91.66,1.8,1.06,2.68a12.54,12.54,0,0,0,.74,1.87,4,4,0,0,0,.41,1.05A30.87,30.87,0,0,0,54.34,44.39Zm-7.05,3.24a2.09,2.09,0,0,0,.8-.33,16.38,16.38,0,0,0,2-.65c.54-.13,1.08-.28,1.62-.39.29,0,.35-.17.24-.42-.23-.53-.45-1.06-.67-1.58-.72-1.94-1.49-3.85-2.3-5.75s-1.49-3.87-2.31-5.77l-1.11-2.8c-.73-1.89-1.46-3.77-2.26-5.62-.34-1-.75-2-1.17-2.92L41.56,20a4.12,4.12,0,0,0-.67-1.44,13.47,13.47,0,0,0-1-2.82c-.52-1.32-1.05-2.64-1.55-4-.14-.35-.32-.23-.52-.13a43.7,43.7,0,0,1-4.94,1.83c-.37.09-.73.19-1.11.27-.22,0-.29.1-.2.34.62,1.49,1.23,3,1.83,4.48.34,1,.71,1.91,1.14,2.83.71,1.93,1.48,3.85,2.3,5.74.32,1,.71,1.9,1.12,2.83a8.94,8.94,0,0,0,.65,1.6,6.25,6.25,0,0,0,.52,1.32c.32,1,.72,1.89,1.12,2.82l2.29,5.75,1.13,2.81a11,11,0,0,0,.7,1.71,6.65,6.65,0,0,0,.46,1.22l.41,1.07c.07.18.16.23.35.14C46.12,48.14,46.71,47.89,47.29,47.63ZM15.69,35.7V21.39c0-.82,0-1.65,0-2.48,0-.28-.1-.35-.36-.34-.83,0-1.66,0-2.48,0H10c-.83,0-1.67,0-2.5,0-.25,0-.33.08-.32.33,0,.83,0,1.66,0,2.5V38.52c0,.85,0,1.69,0,2.54,0,.25,0,.38.33.37.83,0,1.66,0,2.49,0a28.64,28.64,0,0,0,2.93,0c.83,0,1.66,0,2.49,0,.29,0,.35-.11.35-.36,0-.85,0-1.7,0-2.55ZM21.45,10,18.9,10c-.26,0-.33.1-.32.34,0,.83,0,1.66,0,2.5s0,1.76-.05,2.64c0,.18.07.25.24.24.89,0,1.77.06,2.65,0s1.87,0,2.81,0,1.77,0,2.65,0c.21,0,.27-.08.27-.28,0-.87,0-1.73,0-2.6s0-1.66,0-2.49c0-.29-.11-.35-.37-.35l-2.55,0A22,22,0,0,0,21.45,10Zm-5.76,2.81c0-.85,0-1.69,0-2.54,0-.22-.08-.3-.3-.3l-2.54,0H10c-.83,0-1.67,0-2.5,0-.26,0-.33.09-.32.34,0,.83,0,1.66,0,2.5s0,1.7,0,2.56c0,.2,0,.33.27.32.85,0,1.71.06,2.56,0s1.94,0,2.91,0,1.73,0,2.59,0c.26,0,.26-.16.25-.34C15.71,14.52,15.7,13.68,15.69,12.83ZM18.61,35.7a16.6,16.6,0,0,0,0,2.82c0,.87,0,1.73-.05,2.59,0,.26.1.33.34.32l2.54,0a26.72,26.72,0,0,0,2.83,0h2.82q.09,0,.06-.06V38.52q.06-1.41,0-2.82V32.88c0-1,0-2,0-2.92V27.14c0-.94,0-1.88,0-2.83V21.4c0-.83,0-1.66,0-2.49,0-.3-.12-.34-.37-.34-.85,0-1.7,0-2.55,0H21.45l-2.56,0c-.2,0-.34,0-.33.28,0,.85-.06,1.7.05,2.55v2.91a16.72,16.72,0,0,0,0,2.83V30a18,18,0,0,0,0,2.94ZM7.15,47.19c0,.81,0,1.62,0,2.44,0,.25,0,.38.33.37.83,0,1.66,0,2.49,0h2.92c.84,0,1.67,0,2.5,0,.28,0,.35-.11.35-.37,0-.81,0-1.63,0-2.44s0-1.7,0-2.55c0-.25-.06-.37-.35-.36l-2.49,0H10l-2.49,0c-.29,0-.34.12-.33.37C7.14,45.49,7.14,46.34,7.15,47.19ZM21.45,50h2.81l2.6,0c.24,0,.33-.08.32-.33,0-.83,0-1.66,0-2.48V44.37c0-.07,0-.09-.06-.07H21.44l-2.59,0c-.19,0-.29,0-.28.26,0,.88,0,1.76,0,2.65s0,1.69-.05,2.54c0,.21.09.27.28.26Z" transform="translate(-4.29 -7.16)"/></svg>