<svg id="Layer_2" data-name="Layer 2" xmlns="http://www.w3.org/2000/svg" viewBox="0 0 50.71 44.53"><defs><style>.cls-1{fill:#010101;}</style></defs><path id="Path_77" data-name="Path 77" class="cls-1" d="M29.92,52.25H9.82a4.92,4.92,0,0,1-4.51-2.33,4.29,4.29,0,0,1-.67-2.31V21.82a4.69,4.69,0,0,1,4.48-4.48q5.16,0,10.32,0c.81,0,1-.23,1-1-.05-1.9,0-3.8,0-5.71a2.59,2.59,0,0,1,2.84-2.87H36.75A2.56,2.56,0,0,1,39.57,10a2.44,2.44,0,0,1,0,.54c0,1.87,0,3.74,0,5.61,0,1.15,0,1.15,1.19,1.15h9.69a4.72,4.72,0,0,1,4.9,4.52,2.41,2.41,0,0,1,0,.38q0,12.48,0,25a4.82,4.82,0,0,1-4.55,5.06H29.92ZM30,49H50.25c1.22,0,1.85-.51,1.85-1.51,0-4.52,0-9,0-13.58,0-.49-.16-.68-.67-.68H37c-.55,0-.65.25-.64.72,0,1,0,2,0,3a2.33,2.33,0,0,1-2,2.61,2.06,2.06,0,0,1-.43,0c-2.57.06-5.13.06-7.7,0a2.35,2.35,0,0,1-2.52-2.17,2.77,2.77,0,0,1,0-.5c0-.94,0-1.88,0-2.81,0-.69-.23-.86-.88-.86q-7,0-14,0c-.75,0-.91.26-.9.94,0,4.2,0,8.39,0,12.58,0,1.88.4,2.28,2.28,2.28Zm-.07-19H51.18c.74,0,1-.2,1-1,0-2.26,0-4.52,0-6.78,0-1.19-.52-1.71-1.71-1.71H9.59c-1.2,0-1.71.52-1.71,1.71,0,2.23,0,4.46,0,6.69,0,.84.23,1.06,1,1.05,7,0,14,0,21,0ZM30,11c-1.88,0-3.75,0-5.62,0-.6,0-.77.19-.76.78,0,1.6,0,3.19,0,4.79,0,.58.13.8.75.79q5.61,0,11.23,0c.55,0,.73-.18.71-.73,0-1.62,0-3.25,0-4.88,0-.63-.23-.75-.79-.74-1.84,0-3.68,0-5.52,0Zm0,25.35h.9c2.43,0,2.42,0,2.31-2.47,0-.53-.18-.77-.74-.76-1.65,0-3.31,0-5,0-.52,0-.79.16-.76.72s0,1.27,0,1.9.18.63.64.62c.87,0,1.74,0,2.61,0Z" transform="translate(-4.64 -7.74)"/></svg>