<svg id="Layer_14" data-name="Layer 14" xmlns="http://www.w3.org/2000/svg" viewBox="0 0 52.24 52.15"><defs><style>.cls-1{fill:none;}</style></defs><path class="cls-1" d="M51.56,7.66A4,4,0,0,0,49.08,7H11C8.37,7,7,8.35,7,10.94Q7,25.15,7,39.37a3.55,3.55,0,0,0,3.75,3.77c3.94-.06,7.88,0,11.82,0,.8,0,.8,0,.8.76v7c.3-.21.48-.32.65-.45,3.13-2.33,6.24-4.68,9.38-7a1.88,1.88,0,0,1,1-.33c5,0,10,0,15,0A3.38,3.38,0,0,0,53,39.65q0-14.55,0-29.09A3.46,3.46,0,0,0,51.56,7.66Z" transform="translate(-3.88 -3.92)"/><path d="M56.11,10.82A8.49,8.49,0,0,0,56,9.16a6.38,6.38,0,0,0-6.36-5.23q-9.8,0-19.59,0-9.62,0-19.23,0A7.47,7.47,0,0,0,9.35,4a6.52,6.52,0,0,0-5.46,6.76q0,14.33,0,28.67a7.81,7.81,0,0,0,.4,2.45,6.4,6.4,0,0,0,6.2,4.38c3,0,6,0,9,0,.62,0,.75.19.74.78,0,2.5,0,5,0,7.52a1.9,1.9,0,0,0,.37,1.14c.46.55,1,.49,1.74-.06q6-4.46,11.89-8.93a2.05,2.05,0,0,1,1.31-.44c4.58,0,9.16,0,13.74,0a8.13,8.13,0,0,0,1.77-.19,6.6,6.6,0,0,0,5-6.69Q56.12,25.1,56.11,10.82ZM53,39.65a3.38,3.38,0,0,1-3.53,3.48c-5,0-10,0-15,0a1.88,1.88,0,0,0-1,.33c-3.14,2.32-6.25,4.67-9.38,7-.17.13-.35.24-.65.45v-7c0-.76,0-.76-.8-.76-3.94,0-7.88-.05-11.82,0A3.55,3.55,0,0,1,7,39.37q0-14.22,0-28.43C7,8.35,8.37,7,11,7H49.08a4,4,0,0,1,2.48.67A3.46,3.46,0,0,1,53,10.56Q53,25.1,53,39.65Z" transform="translate(-3.88 -3.92)"/><path d="M30,18.62H41.89c.92,0,1.1.18,1.1,1.12,0,.36,0,.72,0,1.08,0,.63-.26.89-.89.94a3,3,0,0,1-.42,0H18.33c-1.14,0-1.31-.18-1.32-1.31,0-1.89,0-1.85,1.82-1.84Z" transform="translate(-3.88 -3.92)"/><path d="M30,28.43h7c.86,0,1.1.24,1.1,1.09,0,.35,0,.71,0,1.07a.85.85,0,0,1-.94,1h-14c-1.08,0-1.26-.19-1.27-1.23v-.66c0-1.09.16-1.25,1.23-1.25Z" transform="translate(-3.88 -3.92)"/></svg>