<svg id="Layer_10" data-name="Layer 10" xmlns="http://www.w3.org/2000/svg" viewBox="0 0 58.73 45.64"><defs><style>.cls-1{fill:#010101;}</style></defs><path class="cls-1" d="M.63,17c0-1.07,0-2.14,0-3.21l.13-1.44a16.12,16.12,0,0,1,.72-1.9A7.79,7.79,0,0,1,3.9,8.05a15.89,15.89,0,0,1,2.21-.83q23.17,0,46.35,0a8.77,8.77,0,0,1,3.64.87,7.75,7.75,0,0,1,2.4,2.37l.73,1.9.14,1.44a31.25,31.25,0,0,0,0,3.21v3.21c0,1.12,0,2.23,0,3.34v3.21c0,1.08,0,2.15,0,3.22v3.33c0,1,0,2.07,0,3.1s0,2.22,0,3.33,0,2.23,0,3.34v3.21l-.14,1.44-.64,1.74a8.25,8.25,0,0,1-2.49,2.5,8,8,0,0,1-2.25.78l-1,.1H7.12l-1.31-.13-1.9-.75a10.25,10.25,0,0,1-2.47-2.36L.77,47.7.63,46.26q.08-1.6,0-3.21V39.72a31.44,31.44,0,0,0,0-3.22V33.29c.05-1.12.05-2.23,0-3.34V26.74a31.44,31.44,0,0,0,0-3.22V20.19C.68,19.12.68,18,.63,17ZM56.08,46.26V17c0-.76,0-1.52,0-2.28,0-.35.14-.73-.1-1.06a2.13,2.13,0,0,0-.06-.87,3.19,3.19,0,0,0-3-2.28c-1.12-.07-2.24-.05-3.36,0H46.33c-1.11-.05-2.23-.05-3.34,0H39.77c-1.07-.05-2.14-.05-3.22,0H33.22c-1.07-.05-2.15-.05-3.22,0H26.78c-1.11-.05-2.22-.05-3.34,0H20.23c-1.08-.05-2.15-.05-3.23,0H13.68c-1.08-.05-2.15-.05-3.23,0s-2.22-.05-3.33,0a3.2,3.2,0,0,0-3.2,3.28v32.5a3.19,3.19,0,0,0,3.19,3.23,18.74,18.74,0,0,0,3.35,0h3.21a20.69,20.69,0,0,0,3.34,0h3.21a19.35,19.35,0,0,0,3.23,0h3.33a19.35,19.35,0,0,0,3.23,0h3.2a20.82,20.82,0,0,0,3.35,0h3.21a19.23,19.23,0,0,0,3.22,0h3.33a19.35,19.35,0,0,0,3.23,0c1.11,0,2.22,0,3.33,0A3.18,3.18,0,0,0,56.08,46.26Z" transform="translate(-0.63 -7.18)"/><path class="cls-1" d="M39.78,23.5a14.46,14.46,0,0,0-2.18-.05c-.82,0-1.05-.26-1.06-1.07,0-.4,0-.79,0-1.19,0-.67.31-1,1-1l2.25,0h6.56l2.14,0c.8,0,1.09.28,1.09,1.07,0,.57,0,1.15,0,1.72l-.34.38a22.57,22.57,0,0,1-2.85.13,20.82,20.82,0,0,0-3.35,0Z" transform="translate(-0.63 -7.18)"/><path class="cls-1" d="M13.65,44.2a1.07,1.07,0,0,1-1,.44H11.44a1,1,0,0,1-.95-.46c0-.38-.06-.75-.08-1.13.09-.86,0-1.73.12-2.59a7,7,0,0,1,2.06-4l1.1-.77A8.35,8.35,0,0,1,17,34.86a18.53,18.53,0,0,1,3.22.55,8.31,8.31,0,0,0,3.22,0,18.82,18.82,0,0,1,3.33-.55,8.5,8.5,0,0,1,3.2.85l1.16.81a6.9,6.9,0,0,1,2.13,5.23,4,4,0,0,0,0,1.3l-.11,1.16a1,1,0,0,1-.92.43H31a1,1,0,0,1-.93-.5c0-.36,0-.73-.07-1.09a5.5,5.5,0,0,0-.49-3.34,2.91,2.91,0,0,0-2.72-1.53,17.21,17.21,0,0,0-3.34.6l-3.08.09A29.71,29.71,0,0,0,17,38.18a3,3,0,0,0-2.82,1.53,5.57,5.57,0,0,0-.47,3.34Z" transform="translate(-0.63 -7.18)"/><path class="cls-1" d="M15.32,20.19A17.87,17.87,0,0,1,17,18.5,9.06,9.06,0,0,1,21.32,17a8.34,8.34,0,0,1,5.46,1.63,13.1,13.1,0,0,1,1.59,1.57,8.24,8.24,0,0,1,.06,9.76,11.26,11.26,0,0,1-1.65,1.66l-.25.15a8,8,0,0,1-5.38,1.45A8.62,8.62,0,0,1,17,31.7a11.27,11.27,0,0,1-1.75-1.77,8.26,8.26,0,0,1-1.57-5.17A8.63,8.63,0,0,1,15.32,20.19Zm4.89,9.48a4.29,4.29,0,0,0,3.39-.05,4.41,4.41,0,0,0,2.82-2.88,4.09,4.09,0,0,0,0-3.22,4.43,4.43,0,0,0-3-3,4.16,4.16,0,0,0-3.23,0,4.46,4.46,0,0,0-3,3,4.49,4.49,0,0,0,.07,3.38A4.49,4.49,0,0,0,20.21,29.67Z" transform="translate(-0.63 -7.18)"/><path class="cls-1" d="M39.77,36.52l-2.25,0c-.69,0-1-.28-1-1,0-.43,0-.87,0-1.3,0-.68.29-.95,1-1l2.24,0H43c1.11,0,2.23,0,3.34,0,.74,0,1.47,0,2.2,0s1,.25,1,1c0,.41,0,.83,0,1.25,0,.73-.27,1-1,1l-2.2,0H39.77Z" transform="translate(-0.63 -7.18)"/><path class="cls-1" d="M39.77,30c-.47,0-.94,0-1.41,0-1.82,0-1.82,0-1.82-1.84,0-.16,0-.32,0-.48a.84.84,0,0,1,.93-.91c.77,0,1.53,0,2.3,0h6.56c.75,0,1.51,0,2.26,0s.95.27,1,.93c0,.44,0,.87,0,1.31,0,.72-.26,1-1,1l-2.26,0C45.22,30,44.1,30,43,30Z" transform="translate(-0.63 -7.18)"/></svg>