<svg id="Layer_5" data-name="Layer 5" xmlns="http://www.w3.org/2000/svg" width="42.26" height="48.41" viewBox="0 0 42.26 48.41"><defs><style>.cls-1{fill:#231f20;}</style></defs><path id="Path_69" data-name="Path 69" class="cls-1" d="M8.88,34.47V19.57a4.52,4.52,0,0,1,4.34-4.69c.13,0,.26,0,.39,0,2.13,0,4.27,0,6.41,0,.76,0,1-.24.92-1-.05-1.12,0-2.24,0-3.36A4.54,4.54,0,0,1,25.21,5.8h16a5,5,0,0,1,3.88,1.57c1.49,1.57,3,3.1,4.6,4.61a4.46,4.46,0,0,1,1.39,3.35V40.59a4.51,4.51,0,0,1-4.43,4.5c-1.32,0-2.64,0-4,0s-2.7-.49-3.43.2-.16,2.24-.23,3.41c0,.29,0,.59,0,.89a4.77,4.77,0,0,1-4.67,4.61c-6.84-.09-13.68,0-20.52,0a4.56,4.56,0,0,1-5-4.07,3.7,3.7,0,0,1,0-.94Q8.89,41.82,8.88,34.47Zm15-9.12V40c0,1.48.61,2.16,1.95,2.16H46.18a1.73,1.73,0,0,0,2-1.49,1.7,1.7,0,0,0,0-.45q0-10.71,0-21.41c0-.79-.29-.93-1-.91-1.88,0-3.75,0-5.63,0A2.21,2.21,0,0,1,39.08,16a2.08,2.08,0,0,1,0-.61c0-1.85,0-3.69,0-5.53,0-.78-.15-1.08-1-1.07-4,0-8,0-12,0-1.55,0-2.13.59-2.13,2.16V25.35Zm-12,9.08v14.7c0,1.45.59,2.07,2,2.07H34.1a1.76,1.76,0,0,0,2-1.5,2,2,0,0,0,0-.43c0-1.08,0-2.17,0-3.25,0-.75-.22-1-1-.94-3.06,0-6.12,0-9.18,0A4.62,4.62,0,0,1,20.92,41a4.31,4.31,0,0,1,0-1c0-7,0-14.08,0-21.12,0-.83-.24-1.06-1.05-1-2,.06-3.94,0-5.92,0-1.56,0-2.11.58-2.12,2.16q0,7.2,0,14.41ZM45,14.88h2.26c.21,0,.51.12.62-.13s-.11-.5-.28-.68Q45.2,11.66,42.8,9.26c-.16-.16-.34-.35-.59-.21s-.14.34-.14.53c0,1.54,0,3.08,0,4.62,0,.59.26.71.78.7.71,0,1.43,0,2.15,0Z" transform="translate(-8.87 -5.79)"/></svg>