<svg id="Layer_18" data-name="Layer 18" xmlns="http://www.w3.org/2000/svg" viewBox="0 0 54.48 48.38"><defs><style>.cls-1{fill:#010101;}</style></defs><path class="cls-1" d="M2.76,27l0-.18,3-2.47L6.15,24c.91-.65,1.77-1.36,2.61-2.09a8.68,8.68,0,0,0,1.24-1,20.22,20.22,0,0,0,1.85-1.47,21.27,21.27,0,0,0,1.88-1.53A7.34,7.34,0,0,0,14.84,17c.89-.66,1.75-1.35,2.58-2.08l.53-.43q3-2.36,6-4.81a6,6,0,0,0,1-.85c.76-.55,1.49-1.14,2.19-1.76a13.65,13.65,0,0,1,1.26-.89,4,4,0,0,1,2.36-.34A7,7,0,0,1,33,7.17a22,22,0,0,0,2.06,1.66,6.44,6.44,0,0,0,1,.85l6,4.81.41.31c.86.78,1.76,1.49,2.69,2.18a8.33,8.33,0,0,0,1.13.91,19.13,19.13,0,0,0,1.85,1.49A16.82,16.82,0,0,0,50,20.88a7.43,7.43,0,0,0,1.23,1c.18.17.43.27.58.43,1,1,2.21,1.79,3.28,2.71.7.6,1.41,1.17,2.11,1.75l0,.18,0,.41-.93,1.15c-.79,1-.84,1.16-1.93.32s-2.05-1.69-3.19-2.59c.05,1.32-.07,2.51.07,3.7V33a15,15,0,0,0,0,3v3a16.05,16.05,0,0,0,0,3.1v3a16.16,16.16,0,0,0,0,3.11v3c-.16.68,0,1.39-.13,2.08a1.65,1.65,0,0,1-1.61.92h-39l-.72,0a2.32,2.32,0,0,1-.93-1l-.09-2a14.94,14.94,0,0,0,0-3V45.11a15,15,0,0,0,0-3V39a14.23,14.23,0,0,0,0-3v-3a16.16,16.16,0,0,0,0-3.11c0-1.06,0-2.13.05-3.2,0-.1,0-.23-.07-.3s-.2,0-.28.11L5.75,28.8c-.09.06-.19.11-.28.18-.72.55-.9.53-1.48-.18L2.8,27.36ZM37.62,48.2a7.7,7.7,0,0,0-.06,1.59c0,1.48,0,1.48,1.52,1.36,1,0,2,0,3,0s2.07.05,3.1,0,1.76,0,2.64,0c.3,0,.37-.12.37-.39,0-.86,0-1.73,0-2.59V24A.28.28,0,0,0,48,23.7l-2.85-2.26a2.92,2.92,0,0,0-.73-.58c-.75-.68-1.55-1.29-2.35-1.9a10.66,10.66,0,0,0-1.34-1.07,14.3,14.3,0,0,0-1.66-1.34,25,25,0,0,0-2.2-1.77,2.75,2.75,0,0,0-.68-.54L30.36,9.5A.43.43,0,0,0,30,9.39c-.31,0-.5.19-.72.36L27,11.59l-6.08,4.95a14.41,14.41,0,0,0-1.67,1.34A11.42,11.42,0,0,0,17.93,19a29.1,29.1,0,0,0-2.37,1.91,3.33,3.33,0,0,0-.72.58L12,23.7c-.09.07-.17.14-.14.27V48.2c0,.86,0,1.73,0,2.59,0,.27.08.4.37.39.88,0,1.76,0,2.64,0,1,0,2.07.05,3.1,0s2,0,3,0l1.1,0c.29,0,.38-.11.38-.39,0-.86,0-1.72,0-2.58a16.16,16.16,0,0,0,0-3.11v-3a16.05,16.05,0,0,0,0-3.1V36a2.44,2.44,0,0,0,.05-1,1.86,1.86,0,0,1,1-1.93l.5-.06c1,0,2.07,0,3.11,0h3a29.82,29.82,0,0,0,3,0h3.09l.67.15a1.77,1.77,0,0,1,.82,1.67,4.39,4.39,0,0,0,0,1.2,16.7,16.7,0,0,0,0,3,17.72,17.72,0,0,0,0,3.09,14.94,14.94,0,0,0,0,3Zm-3.1-3.1V39c0-.51,0-1,0-1.54,0-1.51,0-1.51-1.55-1.43H27c-.4,0-.8,0-1.2,0s-.35.1-.35.35c0,.88,0,1.76,0,2.64V48.2c0,.51,0,1,0,1.54,0,1.54,0,1.54,1.55,1.41,1,0,2,0,3,0s2,.05,3,0c.38,0,.77,0,1.15,0s.41-.09.4-.4c0-.86,0-1.72,0-2.57Z" transform="translate(-2.76 -5.81)"/></svg>