<svg id="Layer_19" data-name="Layer 19" xmlns="http://www.w3.org/2000/svg" viewBox="0 0 46.76 46.78"><defs><style>.cls-1{fill:#010101;}</style></defs><path class="cls-1" d="M30,6.61l3,.21,3.08.59,2.95,1,1.19.51a13.8,13.8,0,0,0,1.81,1l1.31.89A25.49,25.49,0,0,1,48,15.07c.74.93,1.4,1.9,2.06,2.89l.86,1.55.68,1.42,1.06,3.26L53.18,27c.12,1,.17,2,.2,3S53.3,32,53.18,33l-.58,3-.92,2.81-.62,1.38-1,1.85A26.53,26.53,0,0,1,47,46a28.39,28.39,0,0,1-4.92,4l-2,1.08-1.23.54L36,52.58,33,53.19l-3,.2-3-.2L24,52.57l-3-1L19.65,51,18,50.08A28,28,0,0,1,13,46a25.81,25.81,0,0,1-3-3.95L9,40.3A3.86,3.86,0,0,0,8.3,39a1,1,0,0,0-.1-.47A23.48,23.48,0,0,1,7.4,36l-.57-3C6.7,32,6.65,31,6.62,30l.2-3,.57-3,1-3.08a4,4,0,0,0,.44-1L10,18A27.22,27.22,0,0,1,13,14a27.22,27.22,0,0,1,4.93-4l1.76-1L21,8.44l3-1L27,6.82ZM27,50.1a15.51,15.51,0,0,0,3,.21,15.67,15.67,0,0,0,3-.21,15,15,0,0,0,3.1-.71,18.22,18.22,0,0,0,5.93-3A8.71,8.71,0,0,0,43.65,45a9.09,9.09,0,0,0,1.59-1.63,7,7,0,0,0,1.09-1.33A18,18,0,0,0,49.42,36a13.15,13.15,0,0,0,.66-3A13.35,13.35,0,0,0,50.34,30a13.63,13.63,0,0,0-.25-3,24.92,24.92,0,0,0-.69-3,17.78,17.78,0,0,0-3-6.07,10.36,10.36,0,0,0-1.26-1.53A10.66,10.66,0,0,0,43.68,15,10.76,10.76,0,0,0,42,13.63a17.72,17.72,0,0,0-6-3A15,15,0,0,0,33,9.91a11.46,11.46,0,0,0-3-.21,11.46,11.46,0,0,0-3,.21,14.15,14.15,0,0,0-3.08.69,19.54,19.54,0,0,0-6,3,8.71,8.71,0,0,0-1.53,1.25,11.79,11.79,0,0,0-1.54,1.54,9.18,9.18,0,0,0-1.25,1.53A17.74,17.74,0,0,0,10.57,24a13.81,13.81,0,0,0-.66,3,13,13,0,0,0-.25,3,12.83,12.83,0,0,0,.26,3.09,11.74,11.74,0,0,0,.68,3,17.22,17.22,0,0,0,3.06,6.07,7.71,7.71,0,0,0,1.1,1.32A9,9,0,0,0,16.34,45,7.83,7.83,0,0,0,18,46.37a18.64,18.64,0,0,0,5.94,3A15.66,15.66,0,0,0,27,50.1Z" transform="translate(-6.62 -6.61)"/><path class="cls-1" d="M30,16.41a3.1,3.1,0,0,1,2.56,1.48,3,3,0,0,1-2.18,4.56l-.38,0c-2.27-.24-3.57-2.12-2.8-4.11A3,3,0,0,1,30,16.41Z" transform="translate(-6.62 -6.61)"/><path class="cls-1" d="M27,24.69c1,0,2,0,3,0a5.42,5.42,0,0,0,1.14,0,1.08,1.08,0,0,1,1.1,1.11A5.42,5.42,0,0,0,32.3,27a29.42,29.42,0,0,0,0,3,19.92,19.92,0,0,0,0,3.09,29.22,29.22,0,0,0,0,3,21.36,21.36,0,0,0,0,2.4c0,.71,0,.71.73.6l.87.09a1.83,1.83,0,0,1,.1,2.83,3.57,3.57,0,0,1-1,.15H27l-1-.15a1.81,1.81,0,0,1,.1-2.82L27,39c.7,0,.7,0,.7-.63s0-1.57,0-2.36a18.53,18.53,0,0,0,0-3c.05-1,.05-2.05,0-3.08a8.33,8.33,0,0,0,.05-1.58c0-.69,0-.69-.72-.62A1.45,1.45,0,0,1,25.52,27c0-.4-.05-.8,0-1.19a1.06,1.06,0,0,1,1-1Z" transform="translate(-6.62 -6.61)"/></svg>