<svg id="Layer_13" data-name="Layer 13" xmlns="http://www.w3.org/2000/svg" viewBox="0 0 52.21 39.14"><defs><style>.cls-1{fill:#010101;}</style></defs><path class="cls-1" d="M56.1,23.53V43a12.7,12.7,0,0,1-.25,3.07,4.9,4.9,0,0,1-4.25,3.38,17.91,17.91,0,0,0-2.07.08H46.32a20.69,20.69,0,0,0-3.34,0H39.77a19.23,19.23,0,0,0-3.22,0H33.22a19.23,19.23,0,0,0-3.22,0H26.79a20.69,20.69,0,0,0-3.34,0H20.24a19.35,19.35,0,0,0-3.23,0H13.69a19.35,19.35,0,0,0-3.23,0c-.67,0-1.34,0-2-.08a4.86,4.86,0,0,1-4.53-4.72c0-.58,0-1.15,0-1.73V17c.07-.86,0-1.73.12-2.6a5,5,0,0,1,4-3.84c.83-.11,1.66,0,2.49-.11H49.53l1.55,0a5,5,0,0,1,4.76,3.31.47.47,0,0,0,.11.36A18.09,18.09,0,0,1,56.1,17v6.55Zm-48.84.35h0l0,.13a25,25,0,0,0,0,2.74,19.23,19.23,0,0,0,0,3.22v3.32a19.23,19.23,0,0,0,0,3.22v3.21a20.69,20.69,0,0,0,0,3.34c0,.53,0,1.06,0,1.59a1.58,1.58,0,0,0,1.6,1.62c.55,0,1.11,0,1.66,0H49.53c.56,0,1.11,0,1.66,0a1.62,1.62,0,0,0,1.62-1.57,6.51,6.51,0,0,0,0-1.65V39.72a20.49,20.49,0,0,0,0-3.23v-3.2a20.69,20.69,0,0,0,0-3.34v-3.2c.12-1,0-1.91.06-3L48.1,27.61l-5,4A20.41,20.41,0,0,0,41,33.27a8.73,8.73,0,0,0-1.27,1c-.88.64-1.7,1.35-2.52,2.07l-.69.56c-2,1.42-4,2.76-6.55,2.9-2.52-.17-4.54-1.48-6.55-2.84a1.66,1.66,0,0,0-.7-.61l-2.52-2.08-1.26-1a6.61,6.61,0,0,1-.58-.47,4,4,0,0,0-1.36-1,13.11,13.11,0,0,0-2.25-1.89l-1.08-.86L7.39,24A.69.69,0,0,0,7.26,23.88Zm26,11.32a16.08,16.08,0,0,0,2.53-1.9,3.62,3.62,0,0,0,.82-.69L39.8,30l6.53-5.21a13.24,13.24,0,0,0,1.55-1.25,15.29,15.29,0,0,0,1.66-1.35c.78-.58,1.54-1.2,2.26-1.85.37-.31,1-.47,1-1a10.86,10.86,0,0,0,0-2.35c0-.58,0-1.15,0-1.73a1.49,1.49,0,0,0-1.52-1.51c-.57,0-1.15,0-1.72,0a19.35,19.35,0,0,0-3.23,0H43a19.35,19.35,0,0,0-3.23,0h-3.2a20.82,20.82,0,0,0-3.35,0H30a19.35,19.35,0,0,0-3.23,0H23.45a19.23,19.23,0,0,0-3.22,0H17a20.69,20.69,0,0,0-3.34,0H10.47a6.6,6.6,0,0,0-1.83,0,1.54,1.54,0,0,0-1.43,1.43,6.6,6.6,0,0,0,0,1.83,14.25,14.25,0,0,1,0,1.6,1.44,1.44,0,0,0,.86,1.62c.78.7,1.58,1.36,2.42,2a14.2,14.2,0,0,0,1.65,1.34,13.06,13.06,0,0,0,1.54,1.24q1.2,1.05,2.49,2a2.51,2.51,0,0,0,.75.59c1.06.93,2.16,1.81,3.3,2.65l3.24,2.63a5.17,5.17,0,0,0,.95.8,14,14,0,0,0,2.23,1.68A6,6,0,0,0,30,36.47,5.66,5.66,0,0,0,33.22,35.2Z" transform="translate(-3.9 -10.43)"/></svg>