<svg id="Layer_7" data-name="Layer 7" xmlns="http://www.w3.org/2000/svg" width="58.92" height="47.14" viewBox="0 0 58.92 47.14"><defs><style>.cls-1{fill:#231f20;}</style></defs><g id="Group_82" data-name="Group 82"><path id="Path_16" data-name="Path 16" class="cls-1" d="M56,6.46H18.56A3,3,0,0,0,15.3,9.07a2.74,2.74,0,0,0,0,.64c0,2.55,0,5.09,0,7.64,0,.58-.11.86-.78.92a8.58,8.58,0,0,0-5.73,2.79A8.74,8.74,0,0,0,9.19,33.4q.22.21.45.39a8.21,8.21,0,0,0,9.3,1.26,8.31,8.31,0,0,0,5.14-7.66A8.46,8.46,0,0,0,19,19.08a1.11,1.11,0,0,1-.75-1.16c0-2.55,0-5.09,0-7.64,0-.66.18-.89.87-.89H55.66c.66,0,.84.23.84.86q0,15.33,0,30.68c0,.64-.22.85-.85.84q-13.14,0-26.28,0a1.2,1.2,0,0,1-1.06-.51,8.72,8.72,0,0,0-9.35-3,11.9,11.9,0,0,1-7,.09,9.75,9.75,0,0,0-3-.37A8.22,8.22,0,0,0,.69,45a29,29,0,0,0-.11,4.47,3.68,3.68,0,0,0,3.23,4.08,4,4,0,0,0,.85,0h15c2.22,0,4.43,0,6.65,0A3.63,3.63,0,0,0,30,50.19c.08-1.47.05-2.95,0-4.42,0-1-.08-1,1-1H56.05a3,3,0,0,0,3.38-3.37V9.9a3,3,0,0,0-2.54-3.44A3.47,3.47,0,0,0,56,6.46ZM21.18,27.12a5.89,5.89,0,1,1-5.91-5.94,5.91,5.91,0,0,1,5.91,5.94Zm5.88,22.32c0,.92-.24,1.16-1.16,1.16H5c-1.29,0-1.43-.15-1.43-1.46a28,28,0,0,1,.06-3.43,5.45,5.45,0,0,1,6-4.85,5.67,5.67,0,0,1,.84.15,26.85,26.85,0,0,0,4.62.77,13.94,13.94,0,0,0,4.35-.6,6.64,6.64,0,0,1,3.8-.06,5.32,5.32,0,0,1,3.89,5.17c0,1,0,2.1,0,3.14Z" transform="translate(-0.54 -6.43)"/><path id="Path_17" data-name="Path 17" class="cls-1" d="M50.61,16.81c0-1.07-.47-1.51-1.57-1.52H40.78A1.78,1.78,0,0,0,39,16.46a1.71,1.71,0,0,0,.52,2c.82.8,1.6,1.63,2.43,2.41.42.4.43.69,0,1.09Q40,23.81,38.11,25.75c-.42.44-.69.44-1.12,0-1.71-1.73-3.46-3.41-5.19-5.11a2.16,2.16,0,0,0-3.05-.26,2.37,2.37,0,0,0-.27.28c-.62.61-1.22,1.23-1.84,1.83a.73.73,0,0,0-.23.87,10.07,10.07,0,0,1,.51,2.17c0,.16,0,.37.19.42s.29-.11.4-.23c.68-.67,1.38-1.32,2-2,.44-.49.74-.52,1.23,0,1.66,1.71,3.35,3.39,5,5.07a2.2,2.2,0,0,0,3.08.35,2.32,2.32,0,0,0,.35-.35c1.56-1.55,3.12-3.09,4.65-4.67.43-.44.72-.51,1.18,0,.77.85,1.59,1.64,2.42,2.43a1.83,1.83,0,0,0,3.14-1.41C50.61,22.32,50.61,19.56,50.61,16.81Zm-3,5.37-4-3.93h3.58a.36.36,0,0,1,.37.37v.05c0,1.19,0,2.37,0,3.52Z" transform="translate(-0.54 -6.43)"/></g></svg>