<svg id="Layer_8" data-name="Layer 8" xmlns="http://www.w3.org/2000/svg" viewBox="0 0 53.22 47.27"><defs><style>.cls-1{fill:#010101;}</style></defs><path class="cls-1" d="M3.39,18.19V15.27l0-1.72a1.15,1.15,0,0,1,1.26-1.28l1.67,0h5.94l2.57,0c.28,0,.37-.09.37-.37,0-.86,0-1.71,0-2.57A15.62,15.62,0,0,1,15.33,7a1.43,1.43,0,0,1,1.3-.59H43.37c1,0,1.4.39,1.41,1.4,0,.52,0,1,0,1.56,0,.86,0,1.71,0,2.57,0,.28.09.38.37.37l2.57,0h5.94l1.66,0a1.14,1.14,0,0,1,1.27,1.29l0,1.71a28.44,28.44,0,0,0,0,2.92,10.94,10.94,0,0,1-1,5l-.48,1c-.44.61-.8,1.27-1.28,1.85A20.85,20.85,0,0,1,50.73,29L49.34,30l-1.64.94L44.8,32a24.15,24.15,0,0,1-2.77.64.49.49,0,0,0-.41.3,25.69,25.69,0,0,1-1.7,2.91l-1.06,1.32L37.3,38.8l-1.36,1a12.13,12.13,0,0,1-4.16,1.79.31.31,0,0,0-.29.36c0,.93,0,1.86,0,2.79v3c0,.54,0,1.07,0,1.61,0,1.38,0,1.38,1.42,1.26h3c1,.05,1.94.05,2.92,0l1.21.08a3,3,0,0,1,1.58,1.37c.32,1.43.25,1.52-1.24,1.52H19.24a1.73,1.73,0,0,1-.9-.13c-.28-.4,0-.85-.11-1.28a4,4,0,0,1,1.67-1.51l1.25-.05h2.91q1.52.06,3,0c.35,0,.71,0,1.07,0s.35-.12.35-.38c0-.84,0-1.68,0-2.52V41.84c0-.18-.11-.19-.23-.22l-1.14-.27a17.4,17.4,0,0,1-3.05-1.53l-1.34-1-1.57-1.51a10.42,10.42,0,0,0-1.09-1.39c-.55-1-1.24-1.92-1.71-3a.44.44,0,0,0-.38-.26,23.94,23.94,0,0,1-2.76-.63L12.3,30.9,10.67,30a8.36,8.36,0,0,0-1.39-.88,1.18,1.18,0,0,0-.14-.22,16.43,16.43,0,0,1-4.28-4.74A11.6,11.6,0,0,1,3.39,18.19ZM16.25,27l-.57-2.91c-.29-2-.37-3.95-.47-5.93,0-.86,0-1.72,0-2.58,0-.26-.06-.39-.36-.38-.86,0-1.72,0-2.57,0a19.28,19.28,0,0,0-3,0c-.84,0-1.67,0-2.51,0-.3,0-.41.08-.4.39,0,.85,0,1.71,0,2.57a6,6,0,0,0,.42,2.91,8.33,8.33,0,0,0,1.73,3,3.42,3.42,0,0,0,.74.87,15,15,0,0,0,6,3.87,7.41,7.41,0,0,0,1.29.48c.39.14.38,0,.31-.32C16.62,28.36,16.44,27.69,16.25,27ZM39.58,30a17.58,17.58,0,0,0,1-2.92,17.08,17.08,0,0,0,.61-2.75,24.51,24.51,0,0,0,.46-3.19,17.73,17.73,0,0,0,.14-2.91,14.25,14.25,0,0,0,0-2.92v-3a26.43,26.43,0,0,0,.05-2.67c0-.27-.17-.27-.36-.26l-2.63,0H21.15l-2.58,0c-.26,0-.39.06-.38.36,0,.86,0,1.71,0,2.57a19.28,19.28,0,0,0,0,3,28.25,28.25,0,0,0,0,2.91,16.77,16.77,0,0,0,.15,2.92,23.84,23.84,0,0,0,.42,3,18.58,18.58,0,0,0,.64,2.92,17.78,17.78,0,0,0,1,2.91,6,6,0,0,0,.71,1.57A5.08,5.08,0,0,0,21.89,33,11.71,11.71,0,0,0,24,35.93a8.22,8.22,0,0,0,3,2.24,5.72,5.72,0,0,0,2.92.66,5.6,5.6,0,0,0,2.92-.66,8.54,8.54,0,0,0,3-2.24A11.49,11.49,0,0,0,38.11,33a6.08,6.08,0,0,0,.75-1.4A7,7,0,0,0,39.58,30Zm11.15-14.7h-3c-.9-.11-1.8,0-2.69-.05-.23,0-.27.1-.27.3l0,2.69-.1,2.7c0,.12-.07.24-.08.37A40.37,40.37,0,0,1,43.75,27l-.57,2c-.06.24-.06.4.26.29a7,7,0,0,0,1.35-.5A15.22,15.22,0,0,0,51,24.71a9.29,9.29,0,0,0,2.18-3.61,6,6,0,0,0,.42-2.91c0-.87,0-1.75,0-2.62,0-.18,0-.37-.26-.37A26.31,26.31,0,0,0,50.73,15.26Z" transform="translate(-3.39 -6.37)"/></svg>