<svg id="Layer_4" data-name="Layer 4" xmlns="http://www.w3.org/2000/svg" viewBox="0 0 57.51 40.24"><defs><style>.cls-1{fill:#231f20;}</style></defs><g id="Group_77" data-name="Group 77"><path id="Path_60" data-name="Path 60" class="cls-1" d="M30,50.11H17.26a4.26,4.26,0,0,1-4.5-4,4.17,4.17,0,0,1,0-.5,44.35,44.35,0,0,1,.13-5.53,9.88,9.88,0,0,1,8.47-8.19,12.41,12.41,0,0,1,4.92.46,13.72,13.72,0,0,0,8-.14,10.18,10.18,0,0,1,11.13,3.68,9.7,9.7,0,0,1,1.84,5.49c0,1.45,0,2.92,0,4.38A4.29,4.29,0,0,1,43,50.11H30Zm0-2.87H42.65c1.08,0,1.73-.52,1.72-1.5a37,37,0,0,0-.11-5.05,6.58,6.58,0,0,0-3.48-5.1A7.26,7.26,0,0,0,35,35,17,17,0,0,1,25,35a7.22,7.22,0,0,0-3.1-.25,6.86,6.86,0,0,0-6.09,5.75,33.69,33.69,0,0,0-.12,4.92c0,1.29.53,1.82,1.82,1.82Z" transform="translate(-1.24 -9.88)"/><path id="Path_61" data-name="Path 61" class="cls-1" d="M30,30a10,10,0,0,1-10.1-9.89v-.16A10,10,0,0,1,29.85,9.88H30a10,10,0,0,1,10.06,9.83c0,.11,0,.22,0,.33a10,10,0,0,1-10,10Zm7.13-10a7.15,7.15,0,0,0-7.06-7.24H30a7.3,7.3,0,0,0-7.16,7.19A7.27,7.27,0,0,0,30,27.11,7.12,7.12,0,0,0,37.15,20v0Z" transform="translate(-1.24 -9.88)"/><path id="Path_62" data-name="Path 62" class="cls-1" d="M9.89,12.75a7.15,7.15,0,0,1,7.19,7.11V20A7.15,7.15,0,0,1,9.9,27.12H9.78a7.19,7.19,0,1,1,.11-14.37ZM14.14,20a4.29,4.29,0,0,0-4.25-4.34,4.31,4.31,0,0,0-.12,8.61h.12A4.28,4.28,0,0,0,14.14,20Z" transform="translate(-1.24 -9.88)"/><path id="Path_63" data-name="Path 63" class="cls-1" d="M50.13,27.12a7.19,7.19,0,1,1,.1-14.37h0a7.19,7.19,0,0,1-.06,14.37Zm-4.26-7.18a4.25,4.25,0,0,0,4.2,4.3h.16a4.31,4.31,0,0,0-.09-8.61,4.25,4.25,0,0,0-4.27,4.22v.09Z" transform="translate(-1.24 -9.88)"/><path id="Path_64" data-name="Path 64" class="cls-1" d="M15.35,31.13A17.32,17.32,0,0,0,13.27,33c-.16.18-.34.13-.56.08a16.32,16.32,0,0,0-5-.12,4.06,4.06,0,0,0-3.56,4.12,1.47,1.47,0,0,1-1.39,1.56H2.67a1.48,1.48,0,0,1-1.43-1.52s0-.05,0-.07a7,7,0,0,1,6.89-7c1.32,0,2.65,0,4,0A6.41,6.41,0,0,1,15.35,31.13Z" transform="translate(-1.24 -9.88)"/><path id="Path_65" data-name="Path 65" class="cls-1" d="M50.3,30a21.34,21.34,0,0,1,2.88.11,7.14,7.14,0,0,1,5.45,5.74,11.27,11.27,0,0,1,.13,1.29,1.44,1.44,0,0,1-2.87.09,4.56,4.56,0,0,0-1.77-3.6,3.66,3.66,0,0,0-2.3-.74,18,18,0,0,0-4.69.23c-.25.07-.38-.12-.51-.26A8.83,8.83,0,0,0,45,31.46c-.4-.25-.3-.4.06-.59A6.53,6.53,0,0,1,48.34,30C48.93,30,49.52,30,50.3,30Z" transform="translate(-1.24 -9.88)"/></g></svg>