<svg id="Layer_3" data-name="Layer 3" xmlns="http://www.w3.org/2000/svg" viewBox="0 0 46.77 46.78"><defs><style>.cls-1{fill:#231f20;}</style></defs><path id="Path_45" data-name="Path 45" class="cls-1" d="M30,53.39A23.35,23.35,0,0,1,6.62,30v-.47A23.27,23.27,0,0,1,30.12,6.61,23.17,23.17,0,0,1,53.38,29.69V30A23.38,23.38,0,0,1,30,53.39ZM15,43.66a9.93,9.93,0,0,1,1.7-4,8.56,8.56,0,0,1,9-3.33,12.9,12.9,0,0,0,8.67,0,5.33,5.33,0,0,1,2.88-.17,8.84,8.84,0,0,1,7.59,7c.09.36.16.59.51.17a19.89,19.89,0,0,0,4.75-16.46,19.71,19.71,0,0,0-6.59-12A19.92,19.92,0,0,0,31.1,9.69a19.81,19.81,0,0,0-13.84,4.47A20.21,20.21,0,0,0,12,39.45a17.4,17.4,0,0,0,3,4.21Zm14.59,6.66A20.49,20.49,0,0,0,40,47.64c2.36-1.35,2.44-1,1.89-4a5.69,5.69,0,0,0-6.68-4.48l-.51.13a13.85,13.85,0,0,1-8.86.13,5.6,5.6,0,0,0-3.29-.25A6.07,6.07,0,0,0,18,45.58a1.26,1.26,0,0,0,.63,1.19,20.2,20.2,0,0,0,11.05,3.55Z" transform="translate(-6.62 -6.61)"/><path id="Path_46" data-name="Path 46" class="cls-1" d="M30,17.21a8.19,8.19,0,0,1,8.26,8.1v.31a8.28,8.28,0,0,1-16.55-.19v0a8.15,8.15,0,0,1,8.12-8.18Zm-.09,13.47a5.17,5.17,0,0,0,5.33-5v-.11a5.11,5.11,0,0,0-4.87-5.32H30A5,5,0,0,0,24.75,25a1.93,1.93,0,0,0,0,.24,5.18,5.18,0,0,0,4.89,5.44Z" transform="translate(-6.62 -6.61)"/></svg>