<svg id="Layer_9" data-name="Layer 9" xmlns="http://www.w3.org/2000/svg" viewBox="0 0 52.32 39.28"><defs><style>.cls-1{fill:#010101;}</style></defs><path class="cls-1" d="M56.16,33.29v13A10.35,10.35,0,0,1,56,48a3,3,0,0,1-1.23,1.34c-.16.09-.4.08-.45.33a5.88,5.88,0,0,0-1.39,0h0a13.33,13.33,0,0,1-.09-2,1.23,1.23,0,0,0-1.32-1.29c-.65,0-1.3,0-2,0s-1.3,0-1.95,0a1.21,1.21,0,0,0-1.28,1.32c0,.47,0,1,0,1.42s-.1.51-.5.51a22.46,22.46,0,0,0-2.84,0H39.8a20.62,20.62,0,0,0-3.24,0H33.23a20.49,20.49,0,0,0-3.23,0H26.78a23.41,23.41,0,0,0-3.35,0H20.21a19.36,19.36,0,0,0-3.23,0l-3.28,0h0c0-.65,0-1.3,0-2a1.22,1.22,0,0,0-1.28-1.33c-.65,0-1.3,0-1.95,0s-1.35,0-2,0a1.22,1.22,0,0,0-1.27,1.28c0,.52,0,1,0,1.55,0,.31-.09.44-.41.41s-.87,0-1.3-.06A3.69,3.69,0,0,1,4,48a10.35,10.35,0,0,1-.13-1.67V13.71A8.18,8.18,0,0,1,4,11.93a3.15,3.15,0,0,1,1.53-1.44,7.31,7.31,0,0,1,1.55-.11h0a14.8,14.8,0,0,1,.07,2,1.18,1.18,0,0,0,1.22,1.25c.68,0,1.37,0,2.06,0a9,9,0,0,0,2.07,0,1.17,1.17,0,0,0,1.17-1.29c0-.65,0-1.31,0-2h0l3.32,0H43l3.31,0h0c0,.65,0,1.3,0,1.95a1.15,1.15,0,0,0,1.22,1.29c.67,0,1.34,0,2,0a9.31,9.31,0,0,0,1.83.05c1,0,1.45-.48,1.47-1.51a11.77,11.77,0,0,1,0-1.78h1.13a2.72,2.72,0,0,1,2,1.78l.11,1.55V33.29ZM20.21,31.64l-1.71,0c-1.2,0-1.62.46-1.53,1.67v3.22c0,1.08,0,2.15,0,3.23s-.05,2.22,0,3.34c0,.69,0,1.38,0,2.07a1.12,1.12,0,0,0,1.17,1.16c.69,0,1.39,0,2.08,0H39.79c.69,0,1.39,0,2.08,0A1.13,1.13,0,0,0,43,45.15c0-.69,0-1.38,0-2.07,0-1.12,0-2.23,0-3.34V36.51a31.44,31.44,0,0,0,0-3.22c.09-1.22-.33-1.67-1.56-1.67l-1.67,0H20.21Zm0-3.29H39.79c.61,0,1.23,0,1.84,0,1,0,1.53-.59,1.4-1.65V23.5a23.27,23.27,0,0,0,0-3.34V16.94a10.11,10.11,0,0,0,0-2.13,1.15,1.15,0,0,0-1.14-1.14,9.39,9.39,0,0,0-2.12,0H36.57a20.82,20.82,0,0,0-3.35,0H30a20.62,20.62,0,0,0-3.24,0H23.44a20.62,20.62,0,0,0-3.24,0c-.69,0-1.39,0-2.08,0A1.11,1.11,0,0,0,17,14.85c0,.7,0,1.39,0,2.09,0,1.07,0,2.14,0,3.22V23.5c0,1.08,0,2.15,0,3.22s.35,1.65,1.52,1.65C19.06,28.38,19.63,28.36,20.21,28.35Zm-6.58-8.19c0-.67,0-1.35,0-2a1.18,1.18,0,0,0-1.21-1.2c-.67,0-1.34,0-2,0s-1.35,0-2,0a1.14,1.14,0,0,0-1.23,1,11.45,11.45,0,0,0,0,2.19,10.11,10.11,0,0,0,0,2.13,1.15,1.15,0,0,0,1.15,1.14,10.11,10.11,0,0,0,2.13,0c.69,0,1.39,0,2.07,0a1.13,1.13,0,0,0,1.16-1.18C13.66,21.54,13.64,20.85,13.63,20.16ZM10.42,36.53c-.67,0-1.35,0-2,0a1.14,1.14,0,0,0-1.24,1.09,11.54,11.54,0,0,0,0,2.12,10.22,10.22,0,0,0,0,2.14,1.19,1.19,0,0,0,1.25,1.18c.68,0,1.35,0,2,0s1.31,0,2,0a1.22,1.22,0,0,0,1.27-1.35c0-.65,0-1.31,0-2s0-1.35,0-2a1.17,1.17,0,0,0-1.21-1.2C11.76,36.5,11.09,36.53,10.42,36.53Zm39.16-9.79c-.67,0-1.34,0-2,0a1.17,1.17,0,0,0-1.21,1.2c0,.67,0,1.34,0,2s0,1.35,0,2a1.19,1.19,0,0,0,1.26,1.29c.66,0,1.31,0,2,0s1.35,0,2,0a1.19,1.19,0,0,0,1.26-1.18,10.11,10.11,0,0,0,0-2.13,9.55,9.55,0,0,0,0-2.07,1.16,1.16,0,0,0-1.25-1.15C50.92,26.71,50.25,26.74,49.58,26.74Zm0,9.79c-.67,0-1.35,0-2,0a1.17,1.17,0,0,0-1.21,1.26c0,.65,0,1.3,0,2s0,1.34,0,2a1.2,1.2,0,0,0,1.23,1.31c.67,0,1.34,0,2,0s1.34,0,2,0a1.19,1.19,0,0,0,1.25-1.24,11,11,0,0,0,0-2.07,8.84,8.84,0,0,0,0-2.12,1.15,1.15,0,0,0-1.24-1.1C50.93,36.5,50.25,36.53,49.58,36.53Zm0-19.58c-.67,0-1.35,0-2,0a1.18,1.18,0,0,0-1.21,1.2c0,.67,0,1.34,0,2s0,1.39,0,2.08a1.14,1.14,0,0,0,1.11,1.18,9.49,9.49,0,0,0,2.13,0c.71,0,1.43,0,2.14,0a1.09,1.09,0,0,0,1.1-1.05,10.78,10.78,0,0,0,0-2.2,8.88,8.88,0,0,0,0-2.06,1.18,1.18,0,0,0-1.26-1.16C50.92,16.93,50.25,17,49.58,17ZM10.42,26.74c-.67,0-1.35,0-2,0a1.18,1.18,0,0,0-1.26,1.15,9.54,9.54,0,0,0,0,2.07,10.49,10.49,0,0,0,0,2,1.21,1.21,0,0,0,1.31,1.29c.66,0,1.31,0,2,0s1.34,0,2,0A1.21,1.21,0,0,0,13.65,32c0-.67,0-1.33,0-2s0-1.31,0-2a1.19,1.19,0,0,0-1.27-1.26C11.72,26.72,11.07,26.74,10.42,26.74Z" transform="translate(-3.84 -10.36)"/></svg>