<svg id="Layer_6" data-name="Layer 6" xmlns="http://www.w3.org/2000/svg" viewBox="0 0 46.84 46.88"><defs><style>.cls-1{fill:#231f20;}</style></defs><g id="Group_81" data-name="Group 81"><path id="Path_20" data-name="Path 20" class="cls-1" d="M29.9,53.44A23.37,23.37,0,0,1,6.58,30c0-.23,0-.46,0-.69a23.42,23.42,0,0,1,46.83.38v.49A23.46,23.46,0,0,1,29.9,53.44ZM9.64,29.9a20.33,20.33,0,0,0,20.2,20.45H30A20.36,20.36,0,0,0,50.36,30v-.14A20.28,20.28,0,0,0,30.05,9.62h-.12A20.31,20.31,0,0,0,9.64,29.9Z" transform="translate(-6.58 -6.56)"/><path id="Path_21" data-name="Path 21" class="cls-1" d="M20.9,30c0-3.11,0-6.22,0-9.32a2.61,2.61,0,0,1,1.28-2.55,2.48,2.48,0,0,1,2.66.33q7.75,4.74,15.52,9.44a7,7,0,0,1,.91.63,2.24,2.24,0,0,1,.35,3.14,2.32,2.32,0,0,1-.68.57Q35,35.69,29,39.09l-4.26,2.44a2.47,2.47,0,0,1-2.52.31,2.54,2.54,0,0,1-1.32-2.44Q20.9,34.71,20.9,30ZM24,29.88v7c0,1.27.25,1.45,1.33.83q5.79-3.3,11.56-6.64c1.21-.7,1.23-.94.06-1.65L25.24,22.3C24.34,21.75,24,22,24,23c0,2.3,0,4.59,0,6.89Z" transform="translate(-6.58 -6.56)"/></g></svg>