<svg id="Layer_15" data-name="Layer 15" xmlns="http://www.w3.org/2000/svg" viewBox="0 0 54.94 41.08"><defs><style>.cls-1{fill:#231f20;}</style></defs><path id="Path_43" data-name="Path 43" class="cls-1" d="M30.14,50.53H4.86c-1.86,0-2.3-.44-2.3-2.29V11.17c0-.57-.2-1.33.53-1.52a3.62,3.62,0,0,1,2.57.1c.47.24.39.84.39,1.34V27c0,6.27,0,12.55,0,18.83,0,1,.21,1.26,1.23,1.25q24,0,48,0a1.92,1.92,0,0,1,2.17,1.65A2,2,0,0,1,57.16,50c-.26.56-.76.53-1.25.53H30.14Z" transform="translate(-2.53 -9.46)"/><path id="Path_44" data-name="Path 44" class="cls-1" d="M53.88,21.05V27a2.79,2.79,0,0,1-1.67,2.83A2.66,2.66,0,0,1,49.06,29c-1.21-1.24-2.48-2.41-3.65-3.67-.59-.64-.92-.5-1.46.05-2.87,2.92-5.78,5.81-8.68,8.71-1.43,1.43-2.13,1.42-3.58,0C29.11,31.47,26.52,28.9,24,26.3c-.59-.6-.94-.67-1.56,0-2.18,2.24-4.41,4.42-6.62,6.63-.81.8-1,.8-1.85,0l-.48-.48c-.9-.92-.91-1.18,0-2.08l8.09-8a2,2,0,0,1,2.77-.59,2.1,2.1,0,0,1,.58.57c2.65,2.63,5.3,5.27,7.92,7.94.5.51.76.57,1.29,0q3.68-3.77,7.46-7.46c.58-.56.49-.85,0-1.35-1.33-1.25-2.58-2.57-3.89-3.84a2.59,2.59,0,0,1-.77-3,2.75,2.75,0,0,1,2.72-1.7c4,0,8,0,12,0,1.56,0,2.24.72,2.25,2.29C53.88,17.14,53.88,19.09,53.88,21.05Zm-3.49,4.11V16.93c0-.51-.3-.56-.69-.56H41.63Z" transform="translate(-2.53 -9.46)"/></svg>