<svg id="Layer_17" data-name="Layer 17" xmlns="http://www.w3.org/2000/svg" xmlns:xlink="http://www.w3.org/1999/xlink" viewBox="0 0 43.48 43.48"><defs><style>.cls-1{fill:none;}.cls-2{clip-path:url(#clip-path);}.cls-3{fill:#e5e5e4;}.cls-4{clip-path:url(#clip-path-2);}.cls-5{fill:#fff;}.cls-6{clip-path:url(#clip-path-3);}.cls-7{fill:#5d83c3;}.cls-8{clip-path:url(#clip-path-4);}</style><clipPath id="clip-path" transform="translate(-8.26 -8.26)"><circle class="cls-1" cx="30" cy="30" r="20.72"/></clipPath><clipPath id="clip-path-2" transform="translate(-8.26 -8.26)"><circle class="cls-1" cx="30" cy="30" r="20.32"/></clipPath><clipPath id="clip-path-3" transform="translate(-8.26 -8.26)"><circle class="cls-1" cx="30" cy="30" r="18.69"/></clipPath><clipPath id="clip-path-4" transform="translate(-8.26 -8.26)"><path class="cls-1" d="M35.69,27.57,41,23.71c.46-.38.82-.28.82.4V35.89c0,.78-.44.68-.82.4l-5.28-3.86ZM17.81,24.15v8.78a3.59,3.59,0,0,0,3.6,3.58H34.22a.65.65,0,0,0,.65-.65V27.07a3.59,3.59,0,0,0-3.6-3.58H18.46a.65.65,0,0,0-.65.65Z"/></clipPath></defs><g id="Group_190" data-name="Group 190"><g id="Group_175" data-name="Group 175"><g id="Group_174" data-name="Group 174"><g class="cls-2"><g id="Group_173" data-name="Group 173"><g id="Group_172" data-name="Group 172"><path id="Path_79" data-name="Path 79" class="cls-3" d="M8.26,8.26H51.73V51.73H8.26Z" transform="translate(-8.26 -8.26)"/></g></g></g></g></g><g id="Group_179" data-name="Group 179"><g id="Group_178" data-name="Group 178"><g class="cls-4"><g id="Group_177" data-name="Group 177"><g id="Group_176" data-name="Group 176"><path id="Path_80" data-name="Path 80" class="cls-5" d="M8.67,8.67H51.34V51.34H8.67Z" transform="translate(-8.26 -8.26)"/></g></g></g></g></g><g id="Group_183" data-name="Group 183"><g id="Group_182" data-name="Group 182"><g class="cls-6"><g id="Group_181" data-name="Group 181"><g id="Group_180" data-name="Group 180"><path id="Path_81" data-name="Path 81" class="cls-7" d="M10.29,10.29H49.71V49.71H10.29Z" transform="translate(-8.26 -8.26)"/></g></g></g></g></g><g id="Group_187" data-name="Group 187"><g id="Group_186" data-name="Group 186"><g class="cls-8"><g id="Group_185" data-name="Group 185"><g id="Group_184" data-name="Group 184"><path id="Path_82" data-name="Path 82" class="cls-5" d="M16.79,22.48h26v15h-26Z" transform="translate(-8.26 -8.26)"/></g></g></g></g></g></g></svg>